# xmcd
#
# Track frame offsets:
#	183
#	16833
#	29508
#	43645
#	56840
#	68283
#	78433
#	92283
#	108083
#	119533
#	138820
#	149308
#	161658
#	172620
#	181533
#	190433
#	202033
#	221433
#	237245
#	249870
#	264695
#	274733
#	288570
#
# Disc length: 4044 seconds
#
# Revision: 2
# Processed by: cddbd v1.5.2PL0 Copyright (c) Steve Scherf et al.
# Submitted via: audiograbber 1.83.01
#
DISCID=380fca17
DTITLE=Flying Burrito Brothers - Too Much Honky Tonkin' 1979-1982
DYEAR=1996
DGENRE=Country Rock
TTITLE0=She Belongs To Everyone But Me
TTITLE1=She's A Friend Of A Friend
TTITLE2=If Something Should Come Between Us (Let It Be Love)
TTITLE3=Closer To You
TTITLE4=Somewhere Tonight
TTITLE5=Baby How'd We Ever Get This Way
TTITLE6=Too Much Honky Tonkin'
TTITLE7=Midnight Magic Woman
TTITLE8=My Abondoned Heart
TTITLE9=Louisiana
TTITLE10=Cheating Kind Of Love
TTITLE11=Why Must The Ending Be So Sad
TTITLE12=That's When You Know It's Over
TTITLE13=You
TTITLE14=I Swear I Don't Miss Her Anymore
TTITLE15=She's A Hell Of A Deal
TTITLE16=Damned If I'll Be Lonely Tonight
TTITLE17=When You're Giving Yourself To A Stranger
TTITLE18=Run To The Night
TTITLE19=Coast To Coast
TTITLE20=True Love Never Runs Dry
TTITLE21=Another Shade Of Gray
TTITLE22=Tell Me It Ain't So
EXTD=
EXTT0=
EXTT1=
EXTT2=
EXTT3=
EXTT4=
EXTT5=
EXTT6=
EXTT7=
EXTT8=
EXTT9=
EXTT10=
EXTT11=
EXTT12=
EXTT13=
EXTT14=
EXTT15=
EXTT16=
EXTT17=
EXTT18=
EXTT19=
EXTT20=
EXTT21=
EXTT22=
PLAYORDER=
